<svg width="232" height="68" xmlns="http://www.w3.org/2000/svg" xmlns:svg="http://www.w3.org/2000/svg" preserveAspectRatio="xMidYMid meet" version="1.0">
 <g class="layer">
  <title>Layer 1</title>
  <rect class="\" display="none" height="100%" id="svg_3" width="0%" x="0" y="0"/>
  <rect class="watermarklayer" fill="url(#watermark)" height="100%" id="svg_4" width="0%" x="0" y="0"/>
  <g class="iconlinesvg-g iconlinesvg" fill="#ED1C24" id="svg_5" transform="translate(-1 0) translate(1 0) translate(0 1) translate(0 -1) translate(1 0) translate(0 1) matrix(1 0 0 1 47.5642 2.7294)">
   <g class="tp-name" id="svg_6" transform="translate(-47 -2)">
    <g id="svg_7" transform="translate(0, 0)">
     <g id="svg_8">
      <g class="imagesvg" id="svg_9">
       <g id="svg_10">
        <rect class="image-rect" fill="#ED1C24" fill-opacity="0" height="64.54" id="svg_11" stroke-width="2" width="49.8" x="0" y="0"/>
        <g id="svg_1">
         <svg class="image-svg-svg primary" height="64.54" id="svg_13" width="49.8" x="0" y="0">
          <g id="svg_14">
           <svg id="svg_37" viewBox="-0.0034244342241436243 0 68.43342590332031 88.69000244140625" xmlns="http://www.w3.org/2000/svg">
            <title>h28</title>
            <g data-name="图层 2" id="svg_38">
             <g data-name="Layer 1" id="svg_39">
              <path d="m35.73,27.58l1.61,-5.15a31.93,31.93 0 0 0 1.2,-7a15.74,15.74 0 0 0 -1.2,-7.3a12.68,12.68 0 0 0 -5.27,-5.79q-3.81,-2.34 -11.01,-2.34l-5.22,0a4.45,4.45 0 0 1 2.3,2.92a13.74,13.74 0 0 1 0.42,4.17a22.08,22.08 0 0 1 -0.29,2.59c3.45,13.41 -40.63,150.41 17.46,17.9zm28.14,49.25a26,26 0 0 1 -4.59,3a13.94,13.94 0 0 1 -3.7,1.3a7.69,7.69 0 0 1 -2.19,0.16q-1.15,-0.21 -1.2,-1.77a22.93,22.93 0 0 1 1.2,-5.84l5.63,-19.51a62,62 0 0 0 2.14,-9.49a32.55,32.55 0 0 0 0.1,-9.7a14.07,14.07 0 0 0 -3.34,-7.46q-2.66,-3 -8,-3a17.28,17.28 0 0 0 -9.34,2.5a23,23 0 0 0 -6.73,6.36q0.97,-3.11 1.88,-5.8c-30.23,-57.79 -4.18,-2.92 -17.46,-17.89c-0.08,0.5 -0.17,1 -0.28,1.47q-0.47,1.88 -0.68,2.5l-16.04,52.59a31.94,31.94 0 0 0 -1.2,7a15.74,15.74 0 0 0 1.2,7.3a12.66,12.66 0 0 0 5.27,5.79q3.81,2.35 11,2.35l5.22,0a4.44,4.44 0 0 1 -2.3,-2.92a13.74,13.74 0 0 1 -0.43,-4.19a21,21 0 0 1 0.57,-4.07q0.47,-1.88 0.68,-2.5l8.75,-28.69l0,0l0.42,-1.3l0.73,-2.3q0.42,-1.3 0.94,-2.66a18,18 0 0 1 1,-2.3a10.41,10.41 0 0 1 3.23,-3.86a3,3 0 0 1 2.82,-0.52q1.15,0.52 1.51,2.61a12.51,12.51 0 0 1 -0.68,5.53l-7.3,24a31,31 0 0 0 -1.51,9.39a15.72,15.72 0 0 0 1.74,7.3a11.31,11.31 0 0 0 4.7,4.7a15.94,15.94 0 0 0 7.67,1.67a35.2,35.2 0 0 0 5.69,-0.58a23.45,23.45 0 0 0 6.83,-2.35a22.08,22.08 0 0 0 6.36,-5.06a19.39,19.39 0 0 0 4.18,-8.59a22,22 0 0 1 -4.49,4.83z" fill="#FF0000" id="svg_40"/>
             </g>
            </g>
           </svg>
          </g>
         </svg>
        </g>
        <!---->
       </g>
      </g>
     </g>
    </g>
    <g id="svg_18" transform="translate(54, 10.45826648659703)">
     <g data-gra="path-name" fill="#ED1C24" id="svg_19" transform="scale(1)">
      <path d="m9.11,-40.36q-2.4,0 -4,-1.53q-1.59,-1.53 -1.59,-3.81l0,0q0,-2.28 1.59,-3.81q1.6,-1.53 4,-1.53l0,0q2.41,0 4.01,1.53q1.59,1.53 1.59,3.81l0,0q0,2.28 -1.59,3.81q-1.6,1.53 -4.01,1.53l0,0zm-4.62,4.29l9.12,0l0,36.07l-9.12,0l0,-36.07z" id="svg_20" transform="translate(-3.5154259835833566, 51.03877724313614)"/>
     </g>
    </g>
    <g id="svg_21" transform="translate(70, 10.45826648659703)">
     <g data-gra="path-name" fill="#ED1C24" id="svg_22" transform="scale(1)">
      <path d="m13.61,-30.47q1.75,-2.86 4.59,-4.49q2.83,-1.63 6.47,-1.63l0,0l0,9.57l-2.41,0q-4.29,0 -6.47,2.02q-2.18,2.02 -2.18,7.03l0,0l0,17.97l-9.12,0l0,-36.07l9.12,0l0,5.6z" id="svg_23" transform="translate(-4.4919332012454, 51.03877724313614)"/>
     </g>
    </g>
    <g id="svg_24" transform="translate(95, 10.45826648659703)">
     <g data-gra="path-name" fill="#ED1C24" id="svg_25" transform="scale(1)">
      <path d="m38.02,-18.81q0,1.95 -0.26,3.51l0,0l-26.37,0q0.33,3.91 2.74,6.12q2.41,2.21 5.92,2.21l0,0q5.08,0 7.23,-4.36l0,0l9.83,0q-1.57,5.21 -5.99,8.56q-4.43,3.36 -10.87,3.36l0,0q-5.21,0 -9.35,-2.32q-4.13,-2.31 -6.44,-6.54q-2.31,-4.23 -2.31,-9.76l0,0q0,-5.6 2.28,-9.83q2.28,-4.23 6.38,-6.51q4.1,-2.28 9.44,-2.28l0,0q5.14,0 9.21,2.21q4.07,2.22 6.31,6.28q2.25,4.07 2.25,9.35l0,0zm-26.56,-2.61l17.12,0q-0.07,-3.51 -2.54,-5.63q-2.47,-2.12 -6.05,-2.12l0,0q-3.39,0 -5.7,2.06q-2.31,2.05 -2.83,5.69l0,0z" id="svg_26" transform="translate(-2.1483158788564958, 51.03877724313614)"/>
     </g>
    </g>
    <g id="svg_27" transform="translate(135, 10.45826648659703)">
     <g data-gra="path-name" fill="#ED1C24" id="svg_28" transform="scale(1)">
      <path d="m13.61,-30.79q1.75,-2.61 4.85,-4.23q3.09,-1.63 7.06,-1.63l0,0q4.62,0 8.36,2.28q3.75,2.28 5.93,6.47q2.18,4.2 2.18,9.74l0,0q0,5.53 -2.18,9.79q-2.18,4.27 -5.93,6.61q-3.74,2.35 -8.36,2.35l0,0q-4.04,0 -7.06,-1.6q-3.03,-1.59 -4.85,-4.13l0,0l0,5.14l-9.12,0l0,-48.17l9.12,0l0,17.38zm19.07,12.63q0,-3.26 -1.33,-5.63q-1.34,-2.38 -3.52,-3.62q-2.18,-1.23 -4.72,-1.23l0,0q-2.47,0 -4.65,1.27q-2.18,1.26 -3.52,3.67q-1.33,2.41 -1.33,5.67l0,0q0,3.25 1.33,5.66q1.34,2.41 3.52,3.68q2.18,1.27 4.65,1.27l0,0q2.54,0 4.72,-1.3q2.18,-1.31 3.52,-3.71q1.33,-2.41 1.33,-5.73l0,0z" id="svg_29" transform="translate(-4.4919332012454, 51.03877724313614)"/>
     </g>
    </g>
    <g id="svg_30" transform="translate(177, 10.45826648659703)">
     <g data-gra="path-name" fill="#ED1C24" id="svg_31" transform="scale(1)">
      <path d="m9.11,-40.36q-2.4,0 -4,-1.53q-1.59,-1.53 -1.59,-3.81l0,0q0,-2.28 1.59,-3.81q1.6,-1.53 4,-1.53l0,0q2.41,0 4.01,1.53q1.59,1.53 1.59,3.81l0,0q0,2.28 -1.59,3.81q-1.6,1.53 -4.01,1.53l0,0zm-4.62,4.29l9.12,0l0,36.07l-9.12,0l0,-36.07z" id="svg_32" transform="translate(-3.5154259835833566, 51.03877724313614)"/>
     </g>
    </g>
    <g id="svg_33" transform="translate(193 10.4583)">
     <g data-gra="path-name" fill="#ED1C24" id="svg_34" transform="scale(1)">
      <path d="m38.02,-18.81q0,1.95 -0.26,3.51l0,0l-26.37,0q0.33,3.91 2.74,6.12q2.41,2.21 5.92,2.21l0,0q5.08,0 7.23,-4.36l0,0l9.83,0q-1.57,5.21 -5.99,8.56q-4.43,3.36 -10.87,3.36l0,0q-5.21,0 -9.35,-2.32q-4.13,-2.31 -6.44,-6.54q-2.31,-4.23 -2.31,-9.76l0,0q0,-5.6 2.28,-9.83q2.28,-4.23 6.38,-6.51q4.1,-2.28 9.44,-2.28l0,0q5.14,0 9.21,2.21q4.07,2.22 6.31,6.28q2.25,4.07 2.25,9.35l0,0zm-26.56,-2.61l17.12,0q-0.07,-3.51 -2.54,-5.63q-2.47,-2.12 -6.05,-2.12l0,0q-3.39,0 -5.7,2.06q-2.31,2.05 -2.83,5.69l0,0z" id="svg_35" transform="translate(-2.1483158788564958, 51.03877724313614)"/>
     </g>
    </g>
   </g>
   <!---->
  </g>
 </g>
</svg>