<svg width="6000" height="7000" xmlns="http://www.w3.org/2000/svg" xmlns:svg="http://www.w3.org/2000/svg" preserveAspectRatio="xMidYMid meet" version="1.0">
 <g class="layer" display="inline">
  <title>Hirebie Layer 1</title>
  <g id="svg_1">
   <svg class="image-svg-svg primary">
    <g id="svg_5">
     <svg id="svg_11" viewBox="-0.0034244342241436243 0 68.43342590332031 88.69000244140625" xmlns="http://www.w3.org/2000/svg">
      <title>Hirebie</title>
      <g data-name="Hirebie" id="svg_12">
       <g data-name="Hirebie Layer 1" id="svg_13">
        <path d="m35.73 27.58 1.61-5.15a31.93 31.93 0 001.2-7 15.74 15.74 0 00-1.2-7.3 12.68 12.68 0 00-5.27-5.79q-3.81-2.34-11.01-2.34l-5.22 0a4.45 4.45 0 012.3 2.92 13.74 13.74 0 01.42 4.17 22.08 22.08 0 01-.29 2.59c3.45 13.41-40.63 150.41 17.46 17.9zm28.14 49.25a26 26 0 01-4.59 3 13.94 13.94 0 01-3.7 1.3 7.69 7.69 0 01-2.19.16q-1.15-.21-1.2-1.77a22.93 22.93 0 011.2-5.84l5.63-19.51a62 62 0 002.14-9.49 32.55 32.55 0 00.1-9.7 14.07 14.07 0 00-3.34-7.46q-2.66-3-8-3a17.28 17.28 0 00-9.34 2.5 23 23 0 00-6.73 6.36q.97-3.11 1.881-5.801c-30.23-57.79-4.18-2.92-17.46-17.89-.08.5-.17 1-.28 1.47q-.47 1.88-.68 2.5l-16.04 52.59a31.94 31.94 0 00-1.2 7 15.74 15.74 0 001.2 7.3 12.66 12.66 0 005.27 5.79q3.81 2.35 11 2.35l5.22 0a4.44 4.44 0 01-2.3-2.92 13.74 13.74 0 01-.43-4.19 21 21 0 01.57-4.07q.47-1.88.68-2.5l8.75-28.69 0 0 .42-1.3.73-2.3q.42-1.3.94-2.66a18 18 0 011-2.3 10.41 10.41 0 013.23-3.86 3 3 0 012.82-.52q1.15.52 1.51 2.61a12.51 12.51 0 01-.68 5.53l-7.3 24a31 31 0 00-1.51 9.39 15.72 15.72 0 001.74 7.3 11.31 11.31 0 004.7 4.7 15.94 15.94 0 007.67 1.67 35.2 35.2 0 005.69-.58 23.45 23.45 0 006.83-2.35 22.08 22.08 0 006.36-5.06 19.39 19.39 0 004.18-8.59 22 22 0 01-4.491 4.831z" fill="#FF0000" id="svg_14"/>
       </g>
      </g>
     </svg>
    </g>
   </svg>
  </g>
  <!---->
 </g>
</svg>